SplineFontDB: 3.0
FontName: hektometr_db_ep4
FullName: Hektometr DB Ep.4
FamilyName: hektometr_db_ep4
Weight: Regular
Copyright: CC:0 2017 Pawel Adamowicz
UComments: "2017-8-9: Created with FontForge (http://fontforge.org)"
Version: 001.000
ItalicAngle: 0
UnderlinePosition: -100
UnderlineWidth: 50
Ascent: 800
Descent: 200
InvalidEm: 0
LayerCount: 2
Layer: 0 0 "Back" 1
Layer: 1 0 "Fore" 0
XUID: [1021 230 1045428788 18856]
StyleMap: 0x0000
FSType: 0
OS2Version: 0
OS2_WeightWidthSlopeOnly: 0
OS2_UseTypoMetrics: 1
CreationTime: 1502303148
ModificationTime: 1502310388
OS2TypoAscent: 0
OS2TypoAOffset: 1
OS2TypoDescent: 0
OS2TypoDOffset: 1
OS2TypoLinegap: 90
OS2WinAscent: 0
OS2WinAOffset: 1
OS2WinDescent: 0
OS2WinDOffset: 1
HheadAscent: 0
HheadAOffset: 1
HheadDescent: 0
HheadDOffset: 1
MarkAttachClasses: 1
DEI: 91125
Encoding: ISO8859-1
UnicodeInterp: none
NameList: AGL For New Fonts
DisplaySize: -48
AntiAlias: 1
FitToEm: 0
WinInfo: 16 16 11
BeginPrivate: 5
BlueValues 15 [-20 0 800 800]
StemSnapH 5 [103]
StdHW 5 [103]
StemSnapV 5 [103]
StdVW 5 [103]
EndPrivate
BeginChars: 256 63

StartChar: zero
Encoding: 48 48 0
Width: 645
VWidth: 0
Flags: W
HStem: 0 103.241<253.593 391.574> 696.77 103.23<253.593 391.574>
VStem: 25.8105 103.23<263.694 536.3> 516.133 103.219<268.315 531.68>
LayerCount: 2
Fore
SplineSet
322.5859375 800 m 4
 486.483398438 800 619.3515625 620.87890625 619.3515625 399.995117188 c 4
 619.3515625 179.12109375 486.483398438 0 322.5859375 0 c 4
 158.690429688 0 25.810546875 179.12109375 25.810546875 399.995117188 c 4
 25.810546875 620.87890625 158.690429688 800 322.5859375 800 c 4
322.5859375 103.241210938 m 4
 429.450195312 103.241210938 516.1328125 236.130859375 516.1328125 399.994140625 c 4
 516.1328125 563.857421875 429.450195312 696.76953125 322.5859375 696.76953125 c 4
 215.701171875 696.76953125 129.041015625 563.856445312 129.041015625 399.994140625 c 4
 129.041015625 236.131835938 215.701171875 103.241210938 322.5859375 103.241210938 c 4
EndSplineSet
Validated: 1
EndChar

StartChar: one
Encoding: 49 49 1
Width: 267
VWidth: 0
Flags: W
HStem: 0 21G<137.653 240.86> 0 21G<137.653 240.86> 780 20G<202.201 240.86>
VStem: 137.653 103.207<0 630.559>
LayerCount: 2
Fore
SplineSet
25.810546875 688.747070312 m 1xb0
 240.860351562 800 l 1
 240.860351562 0 l 1
 137.653320312 0 l 1
 137.653320312 630.55859375 l 1
 25.810546875 572.826171875 l 1
 25.810546875 688.747070312 l 1xb0
EndSplineSet
Validated: 1
EndChar

StartChar: two
Encoding: 50 50 2
Width: 503
VWidth: 0
Flags: W
HStem: 0 103.252<216.545 477.415> 696.77 103.23<180.304 317.601>
VStem: 374.197 103.217<501.075 640.185>
LayerCount: 2
Fore
SplineSet
353.803710938 502.291015625 m 0
 366.949963257 522.760669976 374.197265625 546.587890625 374.197265625 570.969726562 c 0
 374.197265625 640.438476562 317.852539062 696.76953125 248.384765625 696.76953125 c 0
 190.374023438 696.76953125 139.875976562 657.07421875 126.163085938 600.73046875 c 1
 25.84375 625.158203125 l 1
 50.8154296875 727.776367188 142.776367188 800 248.383789062 800 c 0
 374.850585938 800 477.4140625 697.436523438 477.4140625 570.969726562 c 0
 477.4140625 526.594726562 464.5 483.110351562 440.295898438 445.935546875 c 2
 216.544921875 103.251953125 l 1
 477.415039062 103.231445312 l 1
 477.415039062 0 l 1
 25.810546875 0 l 1
 353.803710938 502.291015625 l 0
EndSplineSet
Validated: 1
EndChar

StartChar: three
Encoding: 51 51 3
Width: 521
VWidth: 0
Flags: W
HStem: 0 103.241<175.126 323.523> 387.092 103.23<250.284 323.875> 696.771 103.229<227.358 350.564>
VStem: 392.221 103.22<171.915 319.135 530.943 655.115>
LayerCount: 2
Fore
SplineSet
413.025390625 428.5 m 1
 464.368164062 382.9140625 495.440429688 316.701171875 495.440429688 245.155273438 c 0
 495.440429688 109.775390625 385.641601562 0 250.284179688 0 c 0
 153 0 64.89453125 57.5439453125 25.8095703125 146.58203125 c 1
 120.31640625 188.078125 l 1
 142.953125 136.536132812 193.962890625 103.241210938 250.284179688 103.241210938 c 0
 328.654296875 103.241210938 392.220703125 166.786132812 392.220703125 245.155273438 c 0
 392.220703125 323.546875 328.654296875 387.091796875 250.284179688 387.091796875 c 1
 250.284179688 490.322265625 l 1
 289.001953125 490.322265625 l 2
 345.991210938 490.322265625 392.220703125 536.541992188 392.220703125 593.541015625 c 0
 392.220703125 650.540039062 345.990234375 696.771484375 289.001953125 696.771484375 c 0
 246.939453125 696.771484375 209.0546875 671.233398438 193.28515625 632.248046875 c 1
 97.58984375 670.955078125 l 1
 129.118164062 748.90234375 204.88671875 800 289.001953125 800 c 0
 402.977539062 800 495.440429688 707.549804688 495.440429688 593.541015625 c 0
 495.440429688 526.095703125 463.079101562 466.173828125 413.025390625 428.5 c 1
EndSplineSet
Validated: 1
EndChar

StartChar: four
Encoding: 52 52 4
Width: 606
VWidth: 0
Flags: W
HStem: 0 21G<412.93 516.129> 0 21G<412.93 516.129> 154.852 103.222<208.146 412.93 516.129 580.652> 780 20G<400.929 516.129>
VStem: 412.93 103.199<0 154.852 258.073 599.35>
LayerCount: 2
Fore
SplineSet
412.9296875 599.349609375 m 1x38
 208.146484375 258.073242188 l 1
 412.9296875 258.073242188 l 1
 412.9296875 599.349609375 l 1x38
412.9296875 154.8515625 m 1
 25.810546875 154.8515625 l 1
 412.9296875 800 l 1
 516.12890625 800 l 1
 516.12890625 258.072265625 l 1
 580.65234375 258.072265625 l 1
 580.65234375 154.8515625 l 1
 516.12890625 154.8515625 l 1
 516.12890625 0 l 1
 412.9296875 0 l 1xb8
 412.9296875 154.8515625 l 1
EndSplineSet
Validated: 1
EndChar

StartChar: five
Encoding: 53 53 5
Width: 517
VWidth: 0
Flags: W
HStem: 0 103.242<172.507 319.642> 387.097 103.231<188.954 319.295> 696.779 103.221<225.583 491.558>
VStem: 388.336 103.221<171.917 318.408>
LayerCount: 2
Fore
SplineSet
69.9189453125 387.096679688 m 1
 143.177734375 800 l 1
 491.557617188 800 l 1
 491.557617188 696.779296875 l 1
 225.583007812 696.779296875 l 1
 188.954101562 490.328125 l 1
 246.3984375 490.328125 l 2
 381.780273438 490.328125 491.556640625 380.540039062 491.556640625 245.158203125 c 0
 491.556640625 109.77734375 381.780273438 0 246.3984375 0 c 0
 152.478515625 0 66.751953125 53.720703125 25.810546875 138.2265625 c 1
 118.672851562 183.2578125 l 1
 142.376953125 134.337890625 192.032226562 103.2421875 246.3984375 103.2421875 c 0
 324.768554688 103.2421875 388.3359375 166.787109375 388.3359375 245.158203125 c 0
 388.3359375 323.55078125 324.768554688 387.096679688 246.3984375 387.096679688 c 2
 69.9189453125 387.096679688 l 1
EndSplineSet
Validated: 1
EndChar

StartChar: six
Encoding: 54 54 6
Width: 542
VWidth: 0
Flags: W
HStem: 0 103.244<197.737 344.225> 387.098 103.231<234.249 344.224> 780 20G<262.031 387.113>
VStem: 25.8096 103.231<171.918 319.491> 412.919 103.219<171.918 318.409>
LayerCount: 2
Fore
SplineSet
270.98046875 490.329101562 m 0
 406.362304688 490.329101562 516.137695312 380.541015625 516.137695312 245.159179688 c 0
 516.137695312 109.77734375 406.36328125 0 270.98046875 0 c 0
 135.609375 0 25.8095703125 109.77734375 25.8095703125 245.159179688 c 0
 25.8095703125 284.122070312 34.93359375 320.97265625 51.13671875 353.69140625 c 2
 271.924804688 800 l 1
 387.11328125 800 l 1
 232.39453125 487.305664062 l 1
 244.975585938 489.294921875 257.844726562 490.329101562 270.98046875 490.329101562 c 0
270.98046875 387.09765625 m 0
 192.609375 387.09765625 129.041015625 323.551757812 129.041015625 245.16015625 c 0
 129.041015625 166.7890625 192.609375 103.244140625 270.98046875 103.244140625 c 0
 349.350585938 103.244140625 412.918945312 166.7890625 412.918945312 245.16015625 c 0
 412.918945312 323.551757812 349.350585938 387.09765625 270.98046875 387.09765625 c 0
EndSplineSet
Validated: 1
EndChar

StartChar: seven
Encoding: 55 55 7
Width: 542
VWidth: 0
Flags: W
HStem: 0 21G<25.8105 149.087> 0 21G<25.8105 149.087> 696.771 103.229<25.8105 353.525>
LayerCount: 2
Fore
SplineSet
516.1328125 800 m 1xa0
 139.67578125 0 l 1
 25.810546875 0 l 1
 353.525390625 696.771484375 l 1
 25.810546875 696.771484375 l 1
 25.810546875 800 l 1
 516.1328125 800 l 1xa0
EndSplineSet
Validated: 1
EndChar

StartChar: eight
Encoding: 56 56 8
Width: 542
VWidth: 0
Flags: W
HStem: 0 103.242<197.727 344.207> 387.097 103.232<209.442 332.49> 696.78 103.22<209.398 332.544>
VStem: 25.8105 103.221<171.917 318.781> 64.5186 103.221<531.794 654.939> 374.201 103.22<531.166 655.123> 412.898 103.219<171.917 318.781>
LayerCount: 2
Fore
SplineSet
25.810546875 245.158203125 m 0xf2
 25.810546875 327.262695312 66.2080078125 399.966796875 128.198242188 444.463867188 c 1
 88.95703125 482.059570312 64.5185546875 534.948242188 64.5185546875 593.547851562 c 0
 64.5185546798 593.549657986 l 0
 64.5185546798 707.56054674 156.970328642 800 270.969726562 800 c 0
 384.98046875 800 477.420898438 707.559570312 477.420898438 593.548828125 c 0xec
 477.420898438 534.948242188 452.971679688 482.060546875 413.7421875 444.463867188 c 1
 475.708984375 399.965820312 516.1171875 327.262695312 516.1171875 245.158203125 c 0
 516.1171875 109.77734375 406.33984375 0 270.969726562 0 c 0
 135.598632812 0 25.810546875 109.77734375 25.810546875 245.158203125 c 0xf2
270.969726562 387.096679688 m 0
 192.598632812 387.096679688 129.03125 323.55078125 129.03125 245.158203125 c 0
 129.03125 166.787109375 192.598632812 103.2421875 270.969726562 103.2421875 c 0
 349.329101562 103.2421875 412.8984375 166.787109375 412.8984375 245.158203125 c 0xf2
 412.897460938 323.55078125 349.329101562 387.096679688 270.969726562 387.096679688 c 0
270.969726562 696.780273438 m 0
 213.969726562 696.780273438 167.739257812 650.548828125 167.739257812 593.548828125 c 0
 167.739257812 536.548828125 213.969726562 490.329101562 270.969726562 490.329101562 c 0
 327.969726562 490.329101562 374.201171875 536.548828125 374.201171875 593.548828125 c 0xec
 374.201171875 650.548828125 327.969726562 696.780273438 270.969726562 696.780273438 c 0
EndSplineSet
Validated: 524289
EndChar

StartChar: nine
Encoding: 57 57 9
Width: 542
VWidth: 0
Flags: W
HStem: 0 21G<154.847 279.93> 0 21G<154.847 279.93> 309.682 103.221<197.733 307.708> 696.779 103.221<197.733 344.224>
VStem: 25.8096 103.232<481.599 628.085> 412.908 103.242<480.512 628.085>
LayerCount: 2
Fore
SplineSet
270.98046875 309.681640625 m 0xbc
 135.59765625 309.681640625 25.8095703125 419.469726562 25.8095703125 554.840820312 c 0
 25.810546875 690.22265625 135.598632812 800 270.98046875 800 c 0
 406.350585938 800 516.150390625 690.22265625 516.150390625 554.840820312 c 0
 516.150390625 515.877929688 507.014648438 479.026367188 490.811523438 446.297851562 c 2
 270.036132812 0 l 1
 154.846679688 0 l 1
 309.5546875 312.706054688 l 1
 296.997070312 310.705078125 284.116210938 309.681640625 270.98046875 309.681640625 c 0xbc
270.98046875 412.90234375 m 0
 349.362304688 412.90234375 412.908203125 476.469726562 412.908203125 554.840820312 c 0
 412.908203125 633.211914062 349.362304688 696.779296875 270.98046875 696.779296875 c 0
 192.59765625 696.779296875 129.041992188 633.2109375 129.041992188 554.840820312 c 0
 129.041992188 476.469726562 192.598632812 412.90234375 270.98046875 412.90234375 c 0
EndSplineSet
Validated: 524289
EndChar

StartChar: A
Encoding: 65 65 10
Width: 350
VWidth: 0
Flags: W
HStem: 0 100<125 225> 700 100<125 225>
VStem: 25 100<100 700> 225 100<100 700>
LayerCount: 2
Fore
SplineSet
125 700 m 1
 125 100 l 1
 225 100 l 1
 225 700 l 1
 125 700 l 1
25 800 m 1
 325 800 l 1
 325 0 l 1
 25 0 l 1
 25 800 l 1
EndSplineSet
Validated: 1
EndChar

StartChar: B
Encoding: 66 66 11
Width: 350
VWidth: 0
Flags: W
HStem: 0 100<125 225> 700 100<125 225>
VStem: 25 100<100 700> 225 100<100 700>
LayerCount: 2
Fore
SplineSet
125 700 m 1
 125 100 l 1
 225 100 l 1
 225 700 l 1
 125 700 l 1
25 800 m 1
 325 800 l 1
 325 0 l 1
 25 0 l 1
 25 800 l 1
EndSplineSet
Validated: 1
EndChar

StartChar: C
Encoding: 67 67 12
Width: 350
VWidth: 0
Flags: W
HStem: 0 100<125 225> 700 100<125 225>
VStem: 25 100<100 700> 225 100<100 700>
LayerCount: 2
Fore
SplineSet
125 700 m 1
 125 100 l 1
 225 100 l 1
 225 700 l 1
 125 700 l 1
25 800 m 1
 325 800 l 1
 325 0 l 1
 25 0 l 1
 25 800 l 1
EndSplineSet
Validated: 1
EndChar

StartChar: D
Encoding: 68 68 13
Width: 350
VWidth: 0
Flags: W
HStem: 0 100<125 225> 700 100<125 225>
VStem: 25 100<100 700> 225 100<100 700>
LayerCount: 2
Fore
SplineSet
125 700 m 1
 125 100 l 1
 225 100 l 1
 225 700 l 1
 125 700 l 1
25 800 m 1
 325 800 l 1
 325 0 l 1
 25 0 l 1
 25 800 l 1
EndSplineSet
Validated: 1
EndChar

StartChar: E
Encoding: 69 69 14
Width: 350
VWidth: 0
Flags: W
HStem: 0 100<125 225> 700 100<125 225>
VStem: 25 100<100 700> 225 100<100 700>
LayerCount: 2
Fore
SplineSet
125 700 m 1
 125 100 l 1
 225 100 l 1
 225 700 l 1
 125 700 l 1
25 800 m 1
 325 800 l 1
 325 0 l 1
 25 0 l 1
 25 800 l 1
EndSplineSet
Validated: 1
EndChar

StartChar: F
Encoding: 70 70 15
Width: 350
VWidth: 0
Flags: W
HStem: 0 100<125 225> 700 100<125 225>
VStem: 25 100<100 700> 225 100<100 700>
LayerCount: 2
Fore
SplineSet
125 700 m 1
 125 100 l 1
 225 100 l 1
 225 700 l 1
 125 700 l 1
25 800 m 1
 325 800 l 1
 325 0 l 1
 25 0 l 1
 25 800 l 1
EndSplineSet
Validated: 1
EndChar

StartChar: G
Encoding: 71 71 16
Width: 350
VWidth: 0
Flags: W
HStem: 0 100<125 225> 700 100<125 225>
VStem: 25 100<100 700> 225 100<100 700>
LayerCount: 2
Fore
SplineSet
125 700 m 1
 125 100 l 1
 225 100 l 1
 225 700 l 1
 125 700 l 1
25 800 m 1
 325 800 l 1
 325 0 l 1
 25 0 l 1
 25 800 l 1
EndSplineSet
Validated: 1
EndChar

StartChar: H
Encoding: 72 72 17
Width: 350
VWidth: 0
Flags: W
HStem: 0 100<125 225> 700 100<125 225>
VStem: 25 100<100 700> 225 100<100 700>
LayerCount: 2
Fore
SplineSet
125 700 m 1
 125 100 l 1
 225 100 l 1
 225 700 l 1
 125 700 l 1
25 800 m 1
 325 800 l 1
 325 0 l 1
 25 0 l 1
 25 800 l 1
EndSplineSet
Validated: 1
EndChar

StartChar: I
Encoding: 73 73 18
Width: 350
VWidth: 0
Flags: W
HStem: 0 100<125 225> 700 100<125 225>
VStem: 25 100<100 700> 225 100<100 700>
LayerCount: 2
Fore
SplineSet
125 700 m 1
 125 100 l 1
 225 100 l 1
 225 700 l 1
 125 700 l 1
25 800 m 1
 325 800 l 1
 325 0 l 1
 25 0 l 1
 25 800 l 1
EndSplineSet
Validated: 1
EndChar

StartChar: J
Encoding: 74 74 19
Width: 350
VWidth: 0
Flags: W
HStem: 0 100<125 225> 700 100<125 225>
VStem: 25 100<100 700> 225 100<100 700>
LayerCount: 2
Fore
SplineSet
125 700 m 1
 125 100 l 1
 225 100 l 1
 225 700 l 1
 125 700 l 1
25 800 m 1
 325 800 l 1
 325 0 l 1
 25 0 l 1
 25 800 l 1
EndSplineSet
Validated: 1
EndChar

StartChar: K
Encoding: 75 75 20
Width: 350
VWidth: 0
Flags: W
HStem: 0 100<125 225> 700 100<125 225>
VStem: 25 100<100 700> 225 100<100 700>
LayerCount: 2
Fore
SplineSet
125 700 m 1
 125 100 l 1
 225 100 l 1
 225 700 l 1
 125 700 l 1
25 800 m 1
 325 800 l 1
 325 0 l 1
 25 0 l 1
 25 800 l 1
EndSplineSet
Validated: 1
EndChar

StartChar: L
Encoding: 76 76 21
Width: 350
VWidth: 0
Flags: W
HStem: 0 100<125 225> 700 100<125 225>
VStem: 25 100<100 700> 225 100<100 700>
LayerCount: 2
Fore
SplineSet
125 700 m 1
 125 100 l 1
 225 100 l 1
 225 700 l 1
 125 700 l 1
25 800 m 1
 325 800 l 1
 325 0 l 1
 25 0 l 1
 25 800 l 1
EndSplineSet
Validated: 1
EndChar

StartChar: M
Encoding: 77 77 22
Width: 350
VWidth: 0
Flags: W
HStem: 0 100<125 225> 700 100<125 225>
VStem: 25 100<100 700> 225 100<100 700>
LayerCount: 2
Fore
SplineSet
125 700 m 1
 125 100 l 1
 225 100 l 1
 225 700 l 1
 125 700 l 1
25 800 m 1
 325 800 l 1
 325 0 l 1
 25 0 l 1
 25 800 l 1
EndSplineSet
Validated: 1
EndChar

StartChar: N
Encoding: 78 78 23
Width: 350
VWidth: 0
Flags: W
HStem: 0 100<125 225> 700 100<125 225>
VStem: 25 100<100 700> 225 100<100 700>
LayerCount: 2
Fore
SplineSet
125 700 m 1
 125 100 l 1
 225 100 l 1
 225 700 l 1
 125 700 l 1
25 800 m 1
 325 800 l 1
 325 0 l 1
 25 0 l 1
 25 800 l 1
EndSplineSet
Validated: 1
EndChar

StartChar: O
Encoding: 79 79 24
Width: 350
VWidth: 0
Flags: W
HStem: 0 100<125 225> 700 100<125 225>
VStem: 25 100<100 700> 225 100<100 700>
LayerCount: 2
Fore
SplineSet
125 700 m 1
 125 100 l 1
 225 100 l 1
 225 700 l 1
 125 700 l 1
25 800 m 1
 325 800 l 1
 325 0 l 1
 25 0 l 1
 25 800 l 1
EndSplineSet
Validated: 1
EndChar

StartChar: P
Encoding: 80 80 25
Width: 350
VWidth: 0
Flags: W
HStem: 0 100<125 225> 700 100<125 225>
VStem: 25 100<100 700> 225 100<100 700>
LayerCount: 2
Fore
SplineSet
125 700 m 1
 125 100 l 1
 225 100 l 1
 225 700 l 1
 125 700 l 1
25 800 m 1
 325 800 l 1
 325 0 l 1
 25 0 l 1
 25 800 l 1
EndSplineSet
Validated: 1
EndChar

StartChar: Q
Encoding: 81 81 26
Width: 350
VWidth: 0
Flags: W
HStem: 0 100<125 225> 700 100<125 225>
VStem: 25 100<100 700> 225 100<100 700>
LayerCount: 2
Fore
SplineSet
125 700 m 1
 125 100 l 1
 225 100 l 1
 225 700 l 1
 125 700 l 1
25 800 m 1
 325 800 l 1
 325 0 l 1
 25 0 l 1
 25 800 l 1
EndSplineSet
Validated: 1
EndChar

StartChar: R
Encoding: 82 82 27
Width: 350
VWidth: 0
Flags: W
HStem: 0 100<125 225> 700 100<125 225>
VStem: 25 100<100 700> 225 100<100 700>
LayerCount: 2
Fore
SplineSet
125 700 m 1
 125 100 l 1
 225 100 l 1
 225 700 l 1
 125 700 l 1
25 800 m 1
 325 800 l 1
 325 0 l 1
 25 0 l 1
 25 800 l 1
EndSplineSet
Validated: 1
EndChar

StartChar: S
Encoding: 83 83 28
Width: 350
VWidth: 0
Flags: W
HStem: 0 100<125 225> 700 100<125 225>
VStem: 25 100<100 700> 225 100<100 700>
LayerCount: 2
Fore
SplineSet
125 700 m 1
 125 100 l 1
 225 100 l 1
 225 700 l 1
 125 700 l 1
25 800 m 1
 325 800 l 1
 325 0 l 1
 25 0 l 1
 25 800 l 1
EndSplineSet
Validated: 1
EndChar

StartChar: T
Encoding: 84 84 29
Width: 350
VWidth: 0
Flags: W
HStem: 0 100<125 225> 700 100<125 225>
VStem: 25 100<100 700> 225 100<100 700>
LayerCount: 2
Fore
SplineSet
125 700 m 1
 125 100 l 1
 225 100 l 1
 225 700 l 1
 125 700 l 1
25 800 m 1
 325 800 l 1
 325 0 l 1
 25 0 l 1
 25 800 l 1
EndSplineSet
Validated: 1
EndChar

StartChar: U
Encoding: 85 85 30
Width: 350
VWidth: 0
Flags: W
HStem: 0 100<125 225> 700 100<125 225>
VStem: 25 100<100 700> 225 100<100 700>
LayerCount: 2
Fore
SplineSet
125 700 m 1
 125 100 l 1
 225 100 l 1
 225 700 l 1
 125 700 l 1
25 800 m 1
 325 800 l 1
 325 0 l 1
 25 0 l 1
 25 800 l 1
EndSplineSet
Validated: 1
EndChar

StartChar: V
Encoding: 86 86 31
Width: 350
VWidth: 0
Flags: W
HStem: 0 100<125 225> 700 100<125 225>
VStem: 25 100<100 700> 225 100<100 700>
LayerCount: 2
Fore
SplineSet
125 700 m 1
 125 100 l 1
 225 100 l 1
 225 700 l 1
 125 700 l 1
25 800 m 1
 325 800 l 1
 325 0 l 1
 25 0 l 1
 25 800 l 1
EndSplineSet
Validated: 1
EndChar

StartChar: W
Encoding: 87 87 32
Width: 350
VWidth: 0
Flags: W
HStem: 0 100<125 225> 700 100<125 225>
VStem: 25 100<100 700> 225 100<100 700>
LayerCount: 2
Fore
SplineSet
125 700 m 1
 125 100 l 1
 225 100 l 1
 225 700 l 1
 125 700 l 1
25 800 m 1
 325 800 l 1
 325 0 l 1
 25 0 l 1
 25 800 l 1
EndSplineSet
Validated: 1
EndChar

StartChar: X
Encoding: 88 88 33
Width: 350
VWidth: 0
Flags: W
HStem: 0 100<125 225> 700 100<125 225>
VStem: 25 100<100 700> 225 100<100 700>
LayerCount: 2
Fore
SplineSet
125 700 m 1
 125 100 l 1
 225 100 l 1
 225 700 l 1
 125 700 l 1
25 800 m 1
 325 800 l 1
 325 0 l 1
 25 0 l 1
 25 800 l 1
EndSplineSet
Validated: 1
EndChar

StartChar: Y
Encoding: 89 89 34
Width: 350
VWidth: 0
Flags: W
HStem: 0 100<125 225> 700 100<125 225>
VStem: 25 100<100 700> 225 100<100 700>
LayerCount: 2
Fore
SplineSet
125 700 m 1
 125 100 l 1
 225 100 l 1
 225 700 l 1
 125 700 l 1
25 800 m 1
 325 800 l 1
 325 0 l 1
 25 0 l 1
 25 800 l 1
EndSplineSet
Validated: 1
EndChar

StartChar: Z
Encoding: 90 90 35
Width: 350
VWidth: 0
Flags: W
HStem: 0 100<125 225> 700 100<125 225>
VStem: 25 100<100 700> 225 100<100 700>
LayerCount: 2
Fore
SplineSet
125 700 m 1
 125 100 l 1
 225 100 l 1
 225 700 l 1
 125 700 l 1
25 800 m 1
 325 800 l 1
 325 0 l 1
 25 0 l 1
 25 800 l 1
EndSplineSet
Validated: 1
EndChar

StartChar: a
Encoding: 97 97 36
Width: 350
VWidth: 0
Flags: W
HStem: 0 100<125 225> 700 100<125 225>
VStem: 25 100<100 700> 225 100<100 700>
LayerCount: 2
Fore
SplineSet
125 700 m 1
 125 100 l 1
 225 100 l 1
 225 700 l 1
 125 700 l 1
25 800 m 1
 325 800 l 1
 325 0 l 1
 25 0 l 1
 25 800 l 1
EndSplineSet
Validated: 1
EndChar

StartChar: b
Encoding: 98 98 37
Width: 350
VWidth: 0
Flags: W
HStem: 0 100<125 225> 700 100<125 225>
VStem: 25 100<100 700> 225 100<100 700>
LayerCount: 2
Fore
SplineSet
125 700 m 1
 125 100 l 1
 225 100 l 1
 225 700 l 1
 125 700 l 1
25 800 m 1
 325 800 l 1
 325 0 l 1
 25 0 l 1
 25 800 l 1
EndSplineSet
Validated: 1
EndChar

StartChar: c
Encoding: 99 99 38
Width: 350
VWidth: 0
Flags: W
HStem: 0 100<125 225> 700 100<125 225>
VStem: 25 100<100 700> 225 100<100 700>
LayerCount: 2
Fore
SplineSet
125 700 m 1
 125 100 l 1
 225 100 l 1
 225 700 l 1
 125 700 l 1
25 800 m 1
 325 800 l 1
 325 0 l 1
 25 0 l 1
 25 800 l 1
EndSplineSet
Validated: 1
EndChar

StartChar: d
Encoding: 100 100 39
Width: 350
VWidth: 0
Flags: W
HStem: 0 100<125 225> 700 100<125 225>
VStem: 25 100<100 700> 225 100<100 700>
LayerCount: 2
Fore
SplineSet
125 700 m 1
 125 100 l 1
 225 100 l 1
 225 700 l 1
 125 700 l 1
25 800 m 1
 325 800 l 1
 325 0 l 1
 25 0 l 1
 25 800 l 1
EndSplineSet
Validated: 1
EndChar

StartChar: e
Encoding: 101 101 40
Width: 350
VWidth: 0
Flags: W
HStem: 0 100<125 225> 700 100<125 225>
VStem: 25 100<100 700> 225 100<100 700>
LayerCount: 2
Fore
SplineSet
125 700 m 1
 125 100 l 1
 225 100 l 1
 225 700 l 1
 125 700 l 1
25 800 m 1
 325 800 l 1
 325 0 l 1
 25 0 l 1
 25 800 l 1
EndSplineSet
Validated: 1
EndChar

StartChar: f
Encoding: 102 102 41
Width: 350
VWidth: 0
Flags: W
HStem: 0 100<125 225> 700 100<125 225>
VStem: 25 100<100 700> 225 100<100 700>
LayerCount: 2
Fore
SplineSet
125 700 m 1
 125 100 l 1
 225 100 l 1
 225 700 l 1
 125 700 l 1
25 800 m 1
 325 800 l 1
 325 0 l 1
 25 0 l 1
 25 800 l 1
EndSplineSet
Validated: 1
EndChar

StartChar: g
Encoding: 103 103 42
Width: 350
VWidth: 0
Flags: W
HStem: 0 100<125 225> 700 100<125 225>
VStem: 25 100<100 700> 225 100<100 700>
LayerCount: 2
Fore
SplineSet
125 700 m 1
 125 100 l 1
 225 100 l 1
 225 700 l 1
 125 700 l 1
25 800 m 1
 325 800 l 1
 325 0 l 1
 25 0 l 1
 25 800 l 1
EndSplineSet
Validated: 1
EndChar

StartChar: h
Encoding: 104 104 43
Width: 350
VWidth: 0
Flags: W
HStem: 0 100<125 225> 700 100<125 225>
VStem: 25 100<100 700> 225 100<100 700>
LayerCount: 2
Fore
SplineSet
125 700 m 1
 125 100 l 1
 225 100 l 1
 225 700 l 1
 125 700 l 1
25 800 m 1
 325 800 l 1
 325 0 l 1
 25 0 l 1
 25 800 l 1
EndSplineSet
Validated: 1
EndChar

StartChar: i
Encoding: 105 105 44
Width: 350
VWidth: 0
Flags: W
HStem: 0 100<125 225> 700 100<125 225>
VStem: 25 100<100 700> 225 100<100 700>
LayerCount: 2
Fore
SplineSet
125 700 m 1
 125 100 l 1
 225 100 l 1
 225 700 l 1
 125 700 l 1
25 800 m 1
 325 800 l 1
 325 0 l 1
 25 0 l 1
 25 800 l 1
EndSplineSet
Validated: 1
EndChar

StartChar: j
Encoding: 106 106 45
Width: 350
VWidth: 0
Flags: W
HStem: 0 100<125 225> 700 100<125 225>
VStem: 25 100<100 700> 225 100<100 700>
LayerCount: 2
Fore
SplineSet
125 700 m 1
 125 100 l 1
 225 100 l 1
 225 700 l 1
 125 700 l 1
25 800 m 1
 325 800 l 1
 325 0 l 1
 25 0 l 1
 25 800 l 1
EndSplineSet
Validated: 1
EndChar

StartChar: k
Encoding: 107 107 46
Width: 350
VWidth: 0
Flags: W
HStem: 0 100<125 225> 700 100<125 225>
VStem: 25 100<100 700> 225 100<100 700>
LayerCount: 2
Fore
SplineSet
125 700 m 1
 125 100 l 1
 225 100 l 1
 225 700 l 1
 125 700 l 1
25 800 m 1
 325 800 l 1
 325 0 l 1
 25 0 l 1
 25 800 l 1
EndSplineSet
Validated: 1
EndChar

StartChar: l
Encoding: 108 108 47
Width: 350
VWidth: 0
Flags: W
HStem: 0 100<125 225> 700 100<125 225>
VStem: 25 100<100 700> 225 100<100 700>
LayerCount: 2
Fore
SplineSet
125 700 m 1
 125 100 l 1
 225 100 l 1
 225 700 l 1
 125 700 l 1
25 800 m 1
 325 800 l 1
 325 0 l 1
 25 0 l 1
 25 800 l 1
EndSplineSet
Validated: 1
EndChar

StartChar: m
Encoding: 109 109 48
Width: 350
VWidth: 0
Flags: W
HStem: 0 100<125 225> 700 100<125 225>
VStem: 25 100<100 700> 225 100<100 700>
LayerCount: 2
Fore
SplineSet
125 700 m 1
 125 100 l 1
 225 100 l 1
 225 700 l 1
 125 700 l 1
25 800 m 1
 325 800 l 1
 325 0 l 1
 25 0 l 1
 25 800 l 1
EndSplineSet
Validated: 1
EndChar

StartChar: n
Encoding: 110 110 49
Width: 350
VWidth: 0
Flags: W
HStem: 0 100<125 225> 700 100<125 225>
VStem: 25 100<100 700> 225 100<100 700>
LayerCount: 2
Fore
SplineSet
125 700 m 1
 125 100 l 1
 225 100 l 1
 225 700 l 1
 125 700 l 1
25 800 m 1
 325 800 l 1
 325 0 l 1
 25 0 l 1
 25 800 l 1
EndSplineSet
Validated: 1
EndChar

StartChar: o
Encoding: 111 111 50
Width: 350
VWidth: 0
Flags: W
HStem: 0 100<125 225> 700 100<125 225>
VStem: 25 100<100 700> 225 100<100 700>
LayerCount: 2
Fore
SplineSet
125 700 m 1
 125 100 l 1
 225 100 l 1
 225 700 l 1
 125 700 l 1
25 800 m 1
 325 800 l 1
 325 0 l 1
 25 0 l 1
 25 800 l 1
EndSplineSet
Validated: 1
EndChar

StartChar: p
Encoding: 112 112 51
Width: 350
VWidth: 0
Flags: W
HStem: 0 100<125 225> 700 100<125 225>
VStem: 25 100<100 700> 225 100<100 700>
LayerCount: 2
Fore
SplineSet
125 700 m 1
 125 100 l 1
 225 100 l 1
 225 700 l 1
 125 700 l 1
25 800 m 1
 325 800 l 1
 325 0 l 1
 25 0 l 1
 25 800 l 1
EndSplineSet
Validated: 1
EndChar

StartChar: q
Encoding: 113 113 52
Width: 350
VWidth: 0
Flags: W
HStem: 0 100<125 225> 700 100<125 225>
VStem: 25 100<100 700> 225 100<100 700>
LayerCount: 2
Fore
SplineSet
125 700 m 1
 125 100 l 1
 225 100 l 1
 225 700 l 1
 125 700 l 1
25 800 m 1
 325 800 l 1
 325 0 l 1
 25 0 l 1
 25 800 l 1
EndSplineSet
Validated: 1
EndChar

StartChar: r
Encoding: 114 114 53
Width: 350
VWidth: 0
Flags: W
HStem: 0 100<125 225> 700 100<125 225>
VStem: 25 100<100 700> 225 100<100 700>
LayerCount: 2
Fore
SplineSet
125 700 m 1
 125 100 l 1
 225 100 l 1
 225 700 l 1
 125 700 l 1
25 800 m 1
 325 800 l 1
 325 0 l 1
 25 0 l 1
 25 800 l 1
EndSplineSet
Validated: 1
EndChar

StartChar: s
Encoding: 115 115 54
Width: 350
VWidth: 0
Flags: W
HStem: 0 100<125 225> 700 100<125 225>
VStem: 25 100<100 700> 225 100<100 700>
LayerCount: 2
Fore
SplineSet
125 700 m 1
 125 100 l 1
 225 100 l 1
 225 700 l 1
 125 700 l 1
25 800 m 1
 325 800 l 1
 325 0 l 1
 25 0 l 1
 25 800 l 1
EndSplineSet
Validated: 1
EndChar

StartChar: t
Encoding: 116 116 55
Width: 350
VWidth: 0
Flags: W
HStem: 0 100<125 225> 700 100<125 225>
VStem: 25 100<100 700> 225 100<100 700>
LayerCount: 2
Fore
SplineSet
125 700 m 1
 125 100 l 1
 225 100 l 1
 225 700 l 1
 125 700 l 1
25 800 m 1
 325 800 l 1
 325 0 l 1
 25 0 l 1
 25 800 l 1
EndSplineSet
Validated: 1
EndChar

StartChar: u
Encoding: 117 117 56
Width: 350
VWidth: 0
Flags: W
HStem: 0 100<125 225> 700 100<125 225>
VStem: 25 100<100 700> 225 100<100 700>
LayerCount: 2
Fore
SplineSet
125 700 m 1
 125 100 l 1
 225 100 l 1
 225 700 l 1
 125 700 l 1
25 800 m 1
 325 800 l 1
 325 0 l 1
 25 0 l 1
 25 800 l 1
EndSplineSet
Validated: 1
EndChar

StartChar: v
Encoding: 118 118 57
Width: 350
VWidth: 0
Flags: W
HStem: 0 100<125 225> 700 100<125 225>
VStem: 25 100<100 700> 225 100<100 700>
LayerCount: 2
Fore
SplineSet
125 700 m 1
 125 100 l 1
 225 100 l 1
 225 700 l 1
 125 700 l 1
25 800 m 1
 325 800 l 1
 325 0 l 1
 25 0 l 1
 25 800 l 1
EndSplineSet
Validated: 1
EndChar

StartChar: w
Encoding: 119 119 58
Width: 350
VWidth: 0
Flags: W
HStem: 0 100<125 225> 700 100<125 225>
VStem: 25 100<100 700> 225 100<100 700>
LayerCount: 2
Fore
SplineSet
125 700 m 1
 125 100 l 1
 225 100 l 1
 225 700 l 1
 125 700 l 1
25 800 m 1
 325 800 l 1
 325 0 l 1
 25 0 l 1
 25 800 l 1
EndSplineSet
Validated: 1
EndChar

StartChar: x
Encoding: 120 120 59
Width: 350
VWidth: 0
Flags: W
HStem: 0 100<125 225> 700 100<125 225>
VStem: 25 100<100 700> 225 100<100 700>
LayerCount: 2
Fore
SplineSet
125 700 m 1
 125 100 l 1
 225 100 l 1
 225 700 l 1
 125 700 l 1
25 800 m 1
 325 800 l 1
 325 0 l 1
 25 0 l 1
 25 800 l 1
EndSplineSet
Validated: 1
EndChar

StartChar: y
Encoding: 121 121 60
Width: 350
VWidth: 0
Flags: W
HStem: 0 100<125 225> 700 100<125 225>
VStem: 25 100<100 700> 225 100<100 700>
LayerCount: 2
Fore
SplineSet
125 700 m 1
 125 100 l 1
 225 100 l 1
 225 700 l 1
 125 700 l 1
25 800 m 1
 325 800 l 1
 325 0 l 1
 25 0 l 1
 25 800 l 1
EndSplineSet
Validated: 1
EndChar

StartChar: z
Encoding: 122 122 61
Width: 350
VWidth: 0
Flags: W
HStem: 0 100<125 225> 700 100<125 225>
VStem: 25 100<100 700> 225 100<100 700>
LayerCount: 2
Fore
SplineSet
125 700 m 1
 125 100 l 1
 225 100 l 1
 225 700 l 1
 125 700 l 1
25 800 m 1
 325 800 l 1
 325 0 l 1
 25 0 l 1
 25 800 l 1
EndSplineSet
Validated: 1
EndChar

StartChar: hyphen
Encoding: 45 45 62
Width: 310
VWidth: 0
Flags: W
HStem: 348.395 103.209<25.8105 283.883>
VStem: 25.8105 258.072<348.395 451.604>
LayerCount: 2
Fore
SplineSet
25.810546875 348.39453125 m 1
 25.810546875 451.603515625 l 1
 283.8828125 451.603515625 l 1
 283.8828125 348.39453125 l 1
 25.810546875 348.39453125 l 1
EndSplineSet
Validated: 524289
EndChar
